<svg id="visual" viewBox="0 0 1366 768" width="1366" height="768" xmlns="http://www.w3.org/2000/svg" xmlns:xlink="http://www.w3.org/1999/xlink" version="1.1"><path d="M0 69L32.5 82.3C65 95.7 130 122.3 195 120.7C260 119 325 89 390 78C455 67 520 75 585.2 90.5C650.3 106 715.7 129 780.8 131.8C846 134.7 911 117.3 976 108.2C1041 99 1106 98 1171 106.8C1236 115.7 1301 134.3 1333.5 143.7L1366 153L1366 0L1333.5 0C1301 0 1236 0 1171 0C1106 0 1041 0 976 0C911 0 846 0 780.8 0C715.7 0 650.3 0 585.2 0C520 0 455 0 390 0C325 0 260 0 195 0C130 0 65 0 32.5 0L0 0Z" fill="#fc9e49" stroke-linecap="round" stroke-linejoin="miter"></path></svg>