<svg width="415" height="307" viewBox="0 0 415 307" fill="none" xmlns="http://www.w3.org/2000/svg">
<path d="M13.0312 260.625V266.025H8.47012V306.932H4.56109V266.025H0V260.625H13.0312Z" fill="white"/>
<path d="M31.2747 260.62H35.1843V306.928H31.2747V286.585H25.4975V306.928H21.5879V260.62H25.4975V281.185H31.2747V260.62Z" fill="white"/>
<path d="M49.7354 301.527H57.598V306.928H45.7824V260.621H57.2937V266.02H49.7354V280.298H55.9904V285.697H49.7354V301.527Z" fill="white"/>
<path d="M82.5736 306.928H79.1422V260.621H83.4427L88.0907 289.322L92.7381 260.621H97.0386V306.928H93.6069V273.048L89.8713 296.868H86.3092L82.5736 273.123V306.928Z" fill="white"/>
<path d="M111.286 290.801H116.021L113.545 266.39L111.286 290.801ZM117.628 306.928L116.542 296.202H110.808L109.809 306.928H105.9L110.721 260.621H116.411L121.581 306.928H117.628Z" fill="white"/>
<path d="M134.351 266.025V282.891H138.174C138.695 282.891 139.043 282.756 139.217 282.484C139.39 282.214 139.477 281.633 139.477 280.746V268.17C139.477 267.283 139.39 266.704 139.217 266.432C139.043 266.161 138.695 266.025 138.174 266.025H134.351ZM134.351 288.217V306.933H130.442V260.624H139.347C142.04 260.624 143.387 262.796 143.387 267.134V281.633C143.387 285.382 142.416 287.528 140.476 288.069L144.776 306.933H140.563L136.48 288.217H134.351Z" fill="white"/>
<path d="M157.634 266.02V282.886H161.457C161.978 282.886 162.326 282.751 162.499 282.479C162.673 282.209 162.76 281.628 162.76 280.741V268.165C162.76 267.278 162.673 266.699 162.499 266.427C162.326 266.156 161.978 266.02 161.457 266.02H157.634ZM157.634 288.212V306.928H153.725V260.62H162.63C165.323 260.62 166.669 262.791 166.669 267.129V281.628C166.669 285.377 165.699 287.523 163.759 288.064L168.059 306.928H163.846L159.763 288.212H157.634Z" fill="white"/>
<path d="M177.355 260.619H181.264V306.927H177.355V260.619Z" fill="white"/>
<path d="M195.859 290.801H200.594L198.118 266.39L195.859 290.801ZM202.201 306.928L201.115 296.202H195.381L194.382 306.928H190.473L195.294 260.621H200.985L206.154 306.928H202.201Z" fill="white"/>
<path d="M227.525 274.156H223.572V268.016C223.572 267.128 223.485 266.55 223.311 266.278C223.137 266.008 222.79 265.871 222.269 265.871H220.054C219.532 265.871 219.185 266.008 219.011 266.278C218.837 266.55 218.75 267.128 218.75 268.016V299.602C218.75 300.49 218.837 301.071 219.011 301.341C219.185 301.612 219.532 301.748 220.054 301.748H222.269C222.79 301.748 223.137 301.612 223.311 301.341C223.485 301.071 223.572 300.49 223.572 299.602V288.285H221.4V283.106H227.525V300.416C227.525 304.806 226.178 307 223.485 307H218.837C216.144 307 214.797 304.806 214.797 300.416V267.128C214.797 262.79 216.144 260.619 218.837 260.619H223.485C226.178 260.619 227.525 262.79 227.525 267.128V274.156Z" fill="white"/>
<path d="M241.641 301.527H249.504V306.928H237.688V260.621H249.2V266.02H241.641V280.298H247.896V285.697H241.641V301.527Z" fill="white"/>
<path d="M280.083 281.479V268.165C280.083 267.278 279.996 266.699 279.823 266.426C279.649 266.156 279.302 266.02 278.78 266.02H274.958V283.699H278.78C279.302 283.699 279.649 283.551 279.823 283.255C279.996 282.96 280.083 282.367 280.083 281.479ZM271.048 260.62H279.953C282.646 260.62 283.993 262.791 283.993 267.129V282.515C283.993 286.856 282.646 289.025 279.953 289.025H274.958V306.927H271.048V260.62Z" fill="white"/>
<path d="M297.457 266.02V282.886H301.28C301.802 282.886 302.149 282.751 302.323 282.479C302.497 282.209 302.583 281.628 302.583 280.741V268.165C302.583 267.278 302.497 266.699 302.323 266.427C302.149 266.156 301.802 266.02 301.28 266.02H297.457ZM297.457 288.212V306.928H293.548V260.62H302.453C305.146 260.62 306.493 262.791 306.493 267.129V281.628C306.493 285.377 305.522 287.523 303.582 288.064L307.883 306.928H303.669L299.586 288.212H297.457Z" fill="white"/>
<path d="M325.649 299.383V268.166C325.649 267.279 325.562 266.699 325.388 266.428C325.215 266.157 324.867 266.021 324.346 266.021H321.826C321.305 266.021 320.964 266.157 320.805 266.428C320.646 266.699 320.567 267.279 320.567 268.166V299.383C320.567 300.271 320.646 300.851 320.805 301.122C320.964 301.393 321.305 301.529 321.826 301.529H324.346C324.867 301.529 325.215 301.393 325.388 301.122C325.562 300.851 325.649 300.271 325.649 299.383ZM320.697 260.621H325.519C328.212 260.621 329.559 262.792 329.559 267.131V300.419C329.559 304.76 328.212 306.929 325.519 306.929H320.697C317.975 306.929 316.613 304.76 316.613 300.419V267.131C316.613 262.792 317.975 260.621 320.697 260.621" fill="white"/>
<path d="M338.333 291.689H342.286V299.381C342.286 300.269 342.373 300.85 342.546 301.119C342.72 301.391 343.067 301.527 343.588 301.527H344.848C345.37 301.527 345.717 301.391 345.891 301.119C346.065 300.85 346.152 300.269 346.152 299.381V260.62H350.104V300.416C350.104 304.757 348.758 306.926 346.065 306.926H342.373C339.679 306.926 338.333 304.757 338.333 300.416V291.689Z" fill="white"/>
<path d="M364.526 301.527H372.388V306.928H360.573V260.621H372.084V266.02H364.526V280.298H370.781V285.697H364.526V301.527Z" fill="white"/>
<path d="M394.064 275.118H390.068V268.016C390.068 267.128 389.987 266.55 389.829 266.278C389.669 266.008 389.329 265.871 388.808 265.871H386.592C386.071 265.871 385.723 266.008 385.55 266.278C385.376 266.55 385.289 267.128 385.289 268.016V299.603C385.289 300.49 385.376 301.071 385.55 301.341C385.723 301.612 386.071 301.748 386.592 301.748H388.808C389.329 301.748 389.669 301.612 389.829 301.341C389.987 301.071 390.068 300.49 390.068 299.603V292.575H394.064V300.416C394.064 304.806 392.702 307 389.981 307H385.376C382.683 307 381.336 304.806 381.336 300.416V267.128C381.336 262.79 382.683 260.619 385.376 260.619H389.981C392.702 260.619 394.064 262.79 394.064 267.128V275.118Z" fill="white"/>
<path d="M415 260.62V266.021H410.439V306.928H406.53V266.021H401.969V260.62H415Z" fill="white"/>
<path d="M281.295 140.367C280.027 140.367 278.999 138.616 278.999 136.457V107.791C278.999 105.631 280.027 103.88 281.295 103.88C282.563 103.88 283.591 105.631 283.591 107.791V136.457C283.591 138.616 282.563 140.367 281.295 140.367Z" fill="white"/>
<path d="M159.65 138.956C159.922 140.637 160.82 141.801 161.844 141.801C162.869 141.801 163.767 140.637 164.039 138.956L185.286 7.75333H201.36V190.04C201.36 192.065 202.23 193.873 203.413 194.065C204.771 194.285 205.913 192.473 205.913 190.207V3.87656C205.913 1.73544 204.894 -0.000197676 203.637 -0.000197676H183.552C182.528 -0.000197676 181.63 1.16422 181.358 2.84589L161.844 123.342L142.331 2.84589C142.059 1.16422 141.161 -0.000197676 140.137 -0.000197676H133.804C132.603 -0.000197676 131.522 1.49281 131.418 3.53029C131.301 5.8276 132.361 7.75333 133.686 7.75333H138.403L159.65 138.956Z" fill="white"/>
<path d="M245.269 32.973H260.844C263.529 32.973 264.162 33.8355 264.163 33.8355C264.171 33.8518 264.653 34.8452 264.653 39.1155V101.302C264.653 105.864 264.109 106.844 264.103 106.854C264.098 106.864 263.522 107.79 260.844 107.79H245.269V32.973ZM240.716 29.0962V111.667C240.716 113.808 241.735 115.544 242.993 115.544H260.844C263.98 115.544 266.04 114.523 267.323 112.335C268.608 110.147 269.207 106.641 269.207 101.302V39.1155C269.207 33.7133 268.586 30.2267 267.25 28.1358C265.972 26.1461 263.937 25.219 260.844 25.219H242.993C241.735 25.219 240.716 26.9547 240.716 29.0962" fill="white"/>
<path d="M280.976 132.643H280.975L242.993 132.665C241.735 132.665 240.716 134.401 240.716 136.542V216.272H189.886V62.0731C189.886 60.4889 189.369 58.9734 188.512 58.3578C187.182 57.4026 185.757 58.7012 185.41 60.9178L169.698 161.101C169.312 163.562 170.401 165.978 171.897 165.978C172.928 165.978 173.831 164.798 174.097 163.101L185.333 91.4591V220.149C185.333 222.29 186.352 224.026 187.609 224.026H242.993C244.25 224.026 245.269 222.29 245.269 220.149V140.419L280.978 140.396C282.54 140.394 283.733 137.714 283.062 134.908C282.724 133.498 281.87 132.643 280.976 132.643Z" fill="white"/>
<path d="M151.786 165.978C153.283 165.978 154.372 163.561 153.985 161.099L138.279 61.2593C137.932 59.0485 136.514 57.7494 135.182 58.6993C134.323 59.3126 133.803 60.8275 133.803 62.4137V219.929C133.803 221.957 134.661 223.804 135.845 224.006C137.208 224.238 138.357 222.422 138.357 220.15V91.7149L149.588 163.105C149.854 164.8 150.756 165.978 151.786 165.978Z" fill="white"/>
<path d="M224.733 194.082C225.991 194.082 227.01 192.347 227.01 190.206V7.75379H242.992C244.25 7.75379 245.269 6.01816 245.269 3.87705C245.269 1.73594 244.25 0.000318995 242.992 0.000318995H224.733C223.476 0.000318995 222.457 1.73594 222.457 3.87705V190.206C222.457 192.347 223.476 194.082 224.733 194.082Z" fill="white"/>
</svg>
