<svg width="102" height="52" viewBox="0 0 102 52" fill="none" xmlns="http://www.w3.org/2000/svg">
<path d="M3.20285 44.1446V45.0593H2.08181V51.9882H1.12104V45.0593H0V44.1446H3.20285Z" fill="white"/>
<path d="M7.6868 44.1441H8.64772V51.9877H7.6868V48.5421H6.26686V51.9877H5.30595V44.1441H6.26686V47.6274H7.6868V44.1441Z" fill="white"/>
<path d="M12.2241 51.0731H14.1566V51.9878H11.2525V44.1442H14.0818V45.0588H12.2241V47.4772H13.7615V48.3917H12.2241V51.0731Z" fill="white"/>
<path d="M20.2952 51.9877H19.4518V44.1443H20.5088L21.6512 49.0057L22.7935 44.1443H23.8505V51.9877H23.007V46.2492L22.0889 50.2838H21.2134L20.2952 46.2618V51.9877Z" fill="white"/>
<path d="M27.3522 49.2563H28.5159L27.9075 45.1215L27.3522 49.2563ZM28.9109 51.9878L28.6441 50.171H27.2347L26.9892 51.9878H26.0284L27.2133 44.1442H28.612L29.8825 51.9878H28.9109Z" fill="white"/>
<path d="M33.0213 45.0593V47.9161H33.9608C34.089 47.9161 34.1744 47.8933 34.2171 47.8472C34.2598 47.8015 34.2811 47.7031 34.2811 47.5528V45.4227C34.2811 45.2724 34.2598 45.1743 34.2171 45.1283C34.1744 45.0824 34.089 45.0593 33.9608 45.0593H33.0213ZM33.0213 48.8183V51.9884H32.0604V44.1446H34.2491C34.911 44.1446 35.2421 44.5124 35.2421 45.2473V47.7031C35.2421 48.338 35.0034 48.7015 34.5266 48.7932L35.5836 51.9884H34.548L33.5445 48.8183H33.0213Z" fill="white"/>
<path d="M38.7438 45.0587V47.9155H39.6833C39.8115 47.9155 39.897 47.8927 39.9396 47.8466C39.9824 47.8009 40.0037 47.7025 40.0037 47.5522V45.4221C40.0037 45.2718 39.9824 45.1737 39.9396 45.1277C39.897 45.0818 39.8115 45.0587 39.6833 45.0587H38.7438ZM38.7438 48.8176V51.9878H37.7829V44.144H39.9717C40.6336 44.144 40.9646 44.5118 40.9646 45.2467V47.7025C40.9646 48.3374 40.7259 48.7009 40.2491 48.7926L41.3062 51.9878H40.2705L39.2671 48.8176H38.7438Z" fill="white"/>
<path d="M43.5908 44.144H44.5517V51.9877H43.5908V44.144Z" fill="white"/>
<path d="M48.1388 49.2563H49.3026L48.6942 45.1215L48.1388 49.2563ZM49.6976 51.9878L49.4308 50.171H48.0214L47.7759 51.9878H46.815L48 44.1442H49.3987L50.6692 51.9878H49.6976Z" fill="white"/>
<path d="M55.9218 46.4368H54.9503V45.3969C54.9503 45.2465 54.929 45.1485 54.8862 45.1024C54.8435 45.0566 54.7581 45.0335 54.6299 45.0335H54.0855C53.9574 45.0335 53.872 45.0566 53.8292 45.1024C53.7865 45.1485 53.7652 45.2465 53.7652 45.3969V50.747C53.7652 50.8974 53.7865 50.9957 53.8292 51.0414C53.872 51.0874 53.9574 51.1104 54.0855 51.1104H54.6299C54.7581 51.1104 54.8435 51.0874 54.8862 51.0414C54.929 50.9957 54.9503 50.8974 54.9503 50.747V48.8299H54.4164V47.9529H55.9218V50.8847C55.9218 51.6284 55.5908 52 54.929 52H53.7865C53.1246 52 52.7936 51.6284 52.7936 50.8847V45.2465C52.7936 44.5116 53.1246 44.1439 53.7865 44.1439H54.929C55.5908 44.1439 55.9218 44.5116 55.9218 45.2465V46.4368Z" fill="white"/>
<path d="M59.3914 51.0731H61.3239V51.9878H58.4199V44.1442H61.2492V45.0588H59.3914V47.4772H60.9288V48.3917H59.3914V51.0731Z" fill="white"/>
<path d="M68.8398 47.6773V45.4221C68.8398 45.2718 68.8185 45.1737 68.7757 45.1276C68.7331 45.0818 68.6477 45.0588 68.5195 45.0588H67.58V48.0533H68.5195C68.6477 48.0533 68.7331 48.0283 68.7757 47.9781C68.8185 47.928 68.8398 47.8277 68.8398 47.6773ZM66.6191 44.144H68.8078C69.4697 44.144 69.8007 44.5118 69.8007 45.2467V47.8528C69.8007 48.588 69.4697 48.9554 68.8078 48.9554H67.58V51.9876H66.6191V44.144Z" fill="white"/>
<path d="M73.1101 45.0587V47.9155H74.0497C74.1778 47.9155 74.2633 47.8927 74.306 47.8466C74.3487 47.8009 74.37 47.7025 74.37 47.5522V45.4221C74.37 45.2718 74.3487 45.1737 74.306 45.1277C74.2633 45.0818 74.1778 45.0587 74.0497 45.0587H73.1101ZM73.1101 48.8176V51.9878H72.1493V44.144H74.3379C74.9999 44.144 75.331 44.5118 75.331 45.2467V47.7025C75.331 48.3374 75.0923 48.7009 74.6155 48.7926L75.6725 51.9878H74.6368L73.6334 48.8176H73.1101Z" fill="white"/>
<path d="M80.0391 50.7098V45.4223C80.0391 45.272 80.0178 45.1738 79.975 45.1278C79.9324 45.082 79.8469 45.0589 79.7188 45.0589H79.0996C78.9715 45.0589 78.8877 45.082 78.8486 45.1278C78.8095 45.1738 78.7899 45.272 78.7899 45.4223V50.7098C78.7899 50.8602 78.8095 50.9585 78.8486 51.0043C78.8877 51.0503 78.9715 51.0732 79.0996 51.0732H79.7188C79.8469 51.0732 79.9324 51.0503 79.975 51.0043C80.0178 50.9585 80.0391 50.8602 80.0391 50.7098ZM78.822 44.1442H80.0071C80.669 44.1442 81.0001 44.512 81.0001 45.2469V50.8852C81.0001 51.6205 80.669 51.988 80.0071 51.988H78.822C78.1529 51.988 77.8183 51.6205 77.8183 50.8852V45.2469C77.8183 44.512 78.1529 44.1442 78.822 44.1442" fill="white"/>
<path d="M83.1566 49.4066H84.1282V50.7095C84.1282 50.8599 84.1495 50.9582 84.1921 51.0039C84.235 51.0499 84.3202 51.0729 84.4483 51.0729H84.7579C84.8862 51.0729 84.9716 51.0499 85.0143 51.0039C85.057 50.9582 85.0783 50.8599 85.0783 50.7095V44.1441H86.0498V50.8849C86.0498 51.6201 85.7189 51.9875 85.057 51.9875H84.1495C83.4874 51.9875 83.1566 51.6201 83.1566 50.8849V49.4066Z" fill="white"/>
<path d="M89.5944 51.0731H91.5267V51.9878H88.6228V44.1442H91.452V45.0588H89.5944V47.4772H91.1317V48.3917H89.5944V51.0731Z" fill="white"/>
<path d="M96.8545 46.5997H95.8721V45.3969C95.8721 45.2465 95.8524 45.1485 95.8134 45.1024C95.7742 45.0567 95.6906 45.0336 95.5625 45.0336H95.018C94.8898 45.0336 94.8044 45.0567 94.7617 45.1024C94.7189 45.1485 94.6976 45.2465 94.6976 45.3969V50.747C94.6976 50.8974 94.7189 50.9957 94.7617 51.0414C94.8044 51.0875 94.8898 51.1104 95.018 51.1104H95.5625C95.6906 51.1104 95.7742 51.0875 95.8134 51.0414C95.8524 50.9957 95.8721 50.8974 95.8721 50.747V49.5566H96.8545V50.8848C96.8545 51.6284 96.5197 52 95.8508 52H94.7189C94.0571 52 93.726 51.6284 93.726 50.8848V45.2465C93.726 44.5116 94.0571 44.1439 94.7189 44.1439H95.8508C96.5197 44.1439 96.8545 44.5116 96.8545 45.2465V46.5997Z" fill="white"/>
<path d="M102 44.1441V45.0589H100.879V51.9877H99.9183V45.0589H98.7972V44.1441H102Z" fill="white"/>
<path d="M69.1375 23.7755C68.8259 23.7755 68.5732 23.4789 68.5732 23.1132V18.2576C68.5732 17.8919 68.8259 17.5953 69.1375 17.5953C69.4492 17.5953 69.7019 17.8919 69.7019 18.2576V23.1132C69.7019 23.4789 69.4492 23.7755 69.1375 23.7755Z" fill="white"/>
<path d="M39.2392 23.5364C39.3061 23.8212 39.5269 24.0184 39.7787 24.0184C40.0305 24.0184 40.2512 23.8212 40.3181 23.5364L45.5403 1.31322H49.491V32.1891C49.491 32.5321 49.7047 32.8383 49.9956 32.8709C50.3294 32.9082 50.6101 32.6013 50.6101 32.2174V0.656568C50.6101 0.293901 50.3596 -8.29038e-05 50.0506 -8.29038e-05H45.1141C44.8623 -8.29038e-05 44.6416 0.197148 44.5747 0.481991L39.7787 20.8918L34.9827 0.481991C34.9159 0.197148 34.6951 -8.29038e-05 34.4433 -8.29038e-05H32.8867C32.5915 -8.29038e-05 32.3259 0.252805 32.3003 0.597916C32.2716 0.987036 32.5321 1.31322 32.8577 1.31322H34.0171L39.2392 23.5364Z" fill="white"/>
<path d="M60.283 5.58497H64.111C64.7711 5.58497 64.9266 5.73107 64.927 5.73107C64.9289 5.73383 65.0474 5.90209 65.0474 6.6254V17.1587C65.0474 17.9313 64.9137 18.0973 64.9121 18.0991C64.9109 18.1007 64.7694 18.2576 64.111 18.2576H60.283V5.58497ZM59.164 4.92833V18.9143C59.164 19.277 59.4144 19.571 59.7235 19.571H64.111C64.882 19.571 65.3882 19.3981 65.7036 19.0274C66.0194 18.6567 66.1665 18.063 66.1665 17.1587V6.6254C66.1665 5.71037 66.014 5.11981 65.6856 4.76564C65.3715 4.42862 64.8713 4.2716 64.111 4.2716H59.7235C59.4144 4.2716 59.164 4.56558 59.164 4.92833" fill="white"/>
<path d="M69.0593 22.4672H69.0589L59.7235 22.471C59.4145 22.471 59.164 22.7649 59.164 23.1277V36.6324H46.6708V10.514C46.6708 10.2456 46.5438 9.98894 46.3331 9.88466C46.0062 9.72287 45.656 9.94283 45.5708 10.3183L41.7089 27.2875C41.6141 27.7043 41.8818 28.1135 42.2495 28.1135C42.5029 28.1135 42.7247 27.9136 42.7901 27.6263L45.5517 15.4914V37.289C45.5517 37.6517 45.8022 37.9457 46.1113 37.9457H59.7235C60.0326 37.9457 60.2831 37.6517 60.2831 37.289V23.7843L69.0598 23.7804C69.4437 23.7801 69.7369 23.3262 69.5719 22.8508C69.4889 22.612 69.279 22.4672 69.0593 22.4672Z" fill="white"/>
<path d="M37.3066 28.1136C37.6744 28.1136 37.9422 27.7041 37.847 27.2871L33.9867 10.3761C33.9014 10.0017 33.5528 9.78161 33.2255 9.94251C33.0143 10.0464 32.8867 10.303 32.8867 10.5717V37.2518C32.8867 37.5953 33.0973 37.9082 33.3886 37.9424C33.7235 37.9817 34.0058 37.6742 34.0058 37.2892V15.5347L36.7661 27.6268C36.8316 27.9139 37.0533 28.1136 37.3066 28.1136Z" fill="white"/>
<path d="M55.2357 32.8739C55.5448 32.8739 55.7953 32.5799 55.7953 32.2172V1.3133H59.7235C60.0325 1.3133 60.283 1.01931 60.283 0.65665C60.283 0.293986 60.0325 3.69245e-06 59.7235 3.69245e-06H55.2357C54.9267 3.69245e-06 54.6762 0.293986 54.6762 0.65665V32.2172C54.6762 32.5799 54.9267 32.8739 55.2357 32.8739Z" fill="white"/>
</svg>
